<svg xmlns="http://www.w3.org/2000/svg" xmlns:xlink="http://www.w3.org/1999/xlink" version="1.1" x="0px" y="0px" style="enable-background:new 0 0 3710 3710;" xml:space="preserve" viewBox="463.99 461.3 2782.02 2793.7">

<g id="Illustration">
	<g>
		<linearGradient id="SVGID_1_" gradientUnits="userSpaceOnUse" x1="3602.1582" y1="4057.5803" x2="1132.9254" y2="990.948">
			<stop offset="0" style="stop-color:#DAE3FE"/>
			<stop offset="1" style="stop-color:#E9EFFD"/>
		</linearGradient>
		<path style="fill:url(#SVGID_1_);" d="M2925.14,2846.63c-56.843,59.624-110.626,98.074-153.12,128.453    c-499.503,357.094-1090.549,253.003-1216.163,227.583c-185.492-37.537-544.044-110.096-803.271-413.831    c-392.189-459.526-331.119-1183.496-26.911-1661.399c55.644-87.417,349.574-572.599,946.985-650.407    c361.547-47.088,782.994,47.884,1088.195,302.65C3401.5,1314.455,3355.892,2394.8,2925.14,2846.63z"/>

		<g>

				<linearGradient id="SVGID_00000034080351789809116350000000616938529608491450_" gradientUnits="userSpaceOnUse" x1="2175.2659" y1="928.2537" x2="1716.6105" y2="2762.8806">
				<stop offset="0" style="stop-color:#08427c"/>
				<stop offset="1" style="stop-color:#5883C8"/>
			</linearGradient>
			<path style="fill:url(#SVGID_00000034080351789809116350000000616938529608491450_);" d="M990.707,943.215     c0-92.824,75.249-168.072,168.073-168.072h1429.297c78.854,0,143.874,61.794,147.883,140.546l105.503,2072.214     c3.137,61.626-45.374,113.607-107.069,114.729l-1638.155,29.773c-57.97,1.053-105.532-45.651-105.532-103.631V943.215z"/>
			<path style="fill:#BDD0FB;" d="M1335.66,3097.176h-0.052l-183.3-2.369c-61.292-0.795-111.155-51.308-111.155-112.602v-276.749     c0-2.163,1.752-3.913,3.913-3.913c2.161,0,3.913,1.75,3.913,3.913v276.749c0,57.033,46.397,104.034,103.43,104.775l183.298,2.37     c2.161,0.026,3.89,1.804,3.863,3.963C1339.543,3095.457,1337.796,3097.176,1335.66,3097.176z"/>
			<path style="fill:#BDD0FB;" d="M1045.066,2623.645c-2.161,0-3.913-1.75-3.913-3.914v-44.819c0-2.163,1.752-3.913,3.913-3.913     c2.161,0,3.913,1.75,3.913,3.913v44.819C1048.979,2621.895,1047.227,2623.645,1045.066,2623.645z"/>
			<g>
				<path style="fill:#7D97F4;" d="M1107.803,807.038c-0.175-29.698,25.943-52.684,55.373-48.693      c195.183,26.469,866.369,108.332,1421.296,65.733c25.307-1.943,47.269,17.232,48.616,42.577l110.625,2081.451      c1.517,28.54-20.277,52.946-48.807,54.634c-233.392,13.812-1194.574,67.205-1537.414,31.296      c-20.866-2.186-36.705-19.753-36.828-40.733L1107.803,807.038z"/>
				<path style="opacity:0.6;fill:#FFFFFF;" d="M1130.794,859.198c-0.168-28.58,24.966-50.7,53.288-46.859      c187.834,25.472,833.745,104.253,1367.777,63.258c24.354-1.869,45.489,16.583,46.785,40.974l106.459,2003.073      c1.46,27.465-19.513,50.952-46.969,52.577c-224.604,13.292-1149.592,64.674-1479.521,30.117      c-20.08-2.103-35.323-19.009-35.441-39.199L1130.794,859.198z"/>
				<g>
					<g style="opacity:0.6;">
						<path style="fill:#FFFFFF;" d="M2486.213,1185.426c2.524,0,4.529-2.064,4.455-4.587l-0.574-19.639        c-0.074-2.523-2.198-4.624-4.722-4.669l-539.804-9.62c-2.523-0.045-3.902,1.866-3.064,4.246l10.545,29.939        c0.838,2.381,3.589,4.328,6.113,4.328H2486.213z"/>
					</g>
					<g style="opacity:0.79;">
						<path style="fill:#FFFFFF;" d="M2492.933,1044.336c2.524,0,4.546-2.065,4.493-4.588l-0.675-32.242        c-0.053-2.523-2.16-4.639-4.683-4.702l-556.582-13.835c-2.523-0.063-4.082,1.888-3.464,4.335l11.762,46.583        c0.618,2.447,3.188,4.449,5.712,4.449H2492.933z"/>
					</g>
					<g style="opacity:0.6;">
						<path style="fill:#FFFFFF;" d="M1945.567,1226.969c-2.523-0.045-3.902,1.866-3.064,4.246l10.545,29.939        c0.838,2.38,3.589,4.328,6.113,4.328h527.051c2.524,0,4.529-2.064,4.455-4.587l-0.574-19.639        c-0.074-2.523-2.198-4.624-4.722-4.669L1945.567,1226.969z"/>
					</g>
					<g style="opacity:0.6;">
						<path style="fill:#FFFFFF;" d="M1945.567,1308.191c-2.523-0.045-3.902,1.866-3.064,4.246l10.545,29.939        c0.838,2.38,3.589,4.328,6.113,4.328h527.051c2.524,0,4.529-2.064,4.455-4.587l-0.574-19.639        c-0.074-2.523-2.198-4.624-4.722-4.669L1945.567,1308.191z"/>
					</g>
				</g>
				<g>
					<g>
						<defs>
							<circle id="SVGID_00000104697571140700101250000017348699130635904899_" cx="1540.25" cy="1202.817" r="274.424"/>
						</defs>
						<use xlink:href="#SVGID_00000104697571140700101250000017348699130635904899_" style="overflow:visible;fill:#FFFFFF;"/>
						<clipPath id="SVGID_00000182507728586949742450000011973042895411067520_">
							<use xlink:href="#SVGID_00000104697571140700101250000017348699130635904899_" style="overflow:visible;"/>
						</clipPath>
						<g style="clip-path:url(#SVGID_00000182507728586949742450000011973042895411067520_);">

								<linearGradient id="SVGID_00000103237127838917553120000017453522464536301442_" gradientUnits="userSpaceOnUse" x1="1546.334" y1="978.9129" x2="1517.3197" y2="1447.5988">
								<stop offset="0" style="stop-color:#09005D"/>
								<stop offset="1" style="stop-color:#1A0F91"/>
							</linearGradient>
							<path style="fill:url(#SVGID_00000103237127838917553120000017453522464536301442_);" d="M1479.406,1148.297         c-16.808,0-34.243,2.143-40.823-18.105c-12.389-38.132,8.422-95.14,42.547-115.898c11.415-6.944,24.723-9.982,37.823-12.611         c15.407-3.092,28.716-3.863,42.609,3.609c12.815,6.893,25.258-4.188,38.542,4.662c11.291,7.521,19.946,19.365,25.981,31.333         c7.88,15.628,11.975,32.86,15.41,50.022c0.778,3.887,1.525,7.913,0.656,11.781c-0.728,3.242-2.538,6.12-4.34,8.912         c-13.779,21.341-32.12,36.294-58.644,36.295C1579.168,1148.297,1479.848,1148.297,1479.406,1148.297z"/>

								<linearGradient id="SVGID_00000063596077843911663660000009895639192755605389_" gradientUnits="userSpaceOnUse" x1="1444.8123" y1="972.6284" x2="1415.7982" y2="1441.3119">
								<stop offset="0" style="stop-color:#09005D"/>
								<stop offset="1" style="stop-color:#1A0F91"/>
							</linearGradient>
							<path style="fill:url(#SVGID_00000063596077843911663660000009895639192755605389_);" d="M1476.032,1081.177         c0,0,3.04,6.365-16.754,16.312c-11.037,5.546-32.507,13.744-35.341,37.689c-1.463,12.362-6.292,42.884-18.053,44.771         c-29.293,4.7-68.833,22.983-72.521,58.526c-4.232,40.795,7.502,62.211,28.271,67.544c15.254,3.918,19.12,8.019,16.034,24.142         c-2.959,15.465,8.771,70.954,34.362,85.092c57.346,31.679,107.297-112.664,107.297-112.664l11.737-186.36L1476.032,1081.177z         "/>

								<linearGradient id="SVGID_00000110434919046693703300000015124728980621190537_" gradientUnits="userSpaceOnUse" x1="1663.2423" y1="986.1502" x2="1634.2281" y2="1454.8346">
								<stop offset="0" style="stop-color:#09005D"/>
								<stop offset="1" style="stop-color:#1A0F91"/>
							</linearGradient>
							<path style="fill:url(#SVGID_00000110434919046693703300000015124728980621190537_);" d="M1607.267,1064.882         c0,0-3.095,6.744,17.056,17.282c11.236,5.876,33.094,14.561,35.979,39.93c1.489,13.097,4.975,31.501,16.949,33.5         c29.822,4.98,64.383,34.037,71.736,90.449c5.613,43.059-6.64,89.241-27.783,94.891c-15.53,4.151-14.362-4.08-11.22,13.003         c3.012,16.384-4.057,10.06-30.11,25.038c-58.381,33.563-116.684-79.515-116.684-79.515l-11.949-197.443L1607.267,1064.882z"/>

								<linearGradient id="SVGID_00000065032175393523903610000008615046104248775833_" gradientUnits="userSpaceOnUse" x1="1606.4976" y1="1227.9752" x2="1566.0684" y2="1275.1427">
								<stop offset="0" style="stop-color:#CB236D"/>
								<stop offset="1" style="stop-color:#4C246D"/>
							</linearGradient>
							<path style="fill:url(#SVGID_00000065032175393523903610000008615046104248775833_);" d="M1529.223,1271.804         c0,0,44.317-11.42,53.729,2.699c4.706,23.476,7.126,46.801,7.126,46.801l-51.064,9.589l-33.77-7.775l-8.034-4.665         l-3.332-33.261C1493.878,1285.192,1511.149,1275.173,1529.223,1271.804z"/>

								<linearGradient id="SVGID_00000031178543981503838190000004984546806556762517_" gradientUnits="userSpaceOnUse" x1="1471.0857" y1="1148.2024" x2="1547.4088" y2="904.5045">
								<stop offset="0" style="stop-color:#FEBBBA"/>
								<stop offset="1" style="stop-color:#FF928E"/>
							</linearGradient>
							<path style="fill:url(#SVGID_00000031178543981503838190000004984546806556762517_);" d="M1476.064,1153.364         c0,0-7.126-21.378-17.814-14.252c-10.689,7.126,16.042,52.603,16.042,52.603L1476.064,1153.364z"/>

								<linearGradient id="SVGID_00000155145643934906987520000016343431159381480594_" gradientUnits="userSpaceOnUse" x1="1583.798" y1="1183.5024" x2="1660.1211" y2="939.8044">
								<stop offset="0" style="stop-color:#FEBBBA"/>
								<stop offset="1" style="stop-color:#FF928E"/>
							</linearGradient>
							<path style="fill:url(#SVGID_00000155145643934906987520000016343431159381480594_);" d="M1582.952,1153.364         c0,0,0-32.067,17.815-14.252c17.814,17.815-17.815,42.755-17.815,42.755V1153.364z"/>

								<linearGradient id="SVGID_00000040550004502916964530000008116224333093183393_" gradientUnits="userSpaceOnUse" x1="1769.9353" y1="1307.4739" x2="1907.7072" y2="1042.0105">
								<stop offset="0" style="stop-color:#FE7062"/>
								<stop offset="1" style="stop-color:#FF928E"/>
							</linearGradient>
							<path style="fill:url(#SVGID_00000040550004502916964530000008116224333093183393_);" d="M1750.751,1444.565         c-14.916-71.998-36.332-128.272-43.097-131.53l-40.449,100.072c0,0-8.166,29.821-7.508,66.845h62.208         C1740.556,1479.953,1754.534,1462.828,1750.751,1444.565z"/>

								<linearGradient id="SVGID_00000039097017131433263810000011210718919164155562_" gradientUnits="userSpaceOnUse" x1="1528.3674" y1="1182.1041" x2="1666.1393" y2="916.641">
								<stop offset="0" style="stop-color:#FE7062"/>
								<stop offset="1" style="stop-color:#FF928E"/>
							</linearGradient>
							<path style="fill:url(#SVGID_00000039097017131433263810000011210718919164155562_);" d="M1439.385,1479.953         c1.864-32.162,1.05-52.419,1.05-52.419l-57.007-92.548c0,0-7.126,28.372-14.252,103.193         c-0.331,3.477-0.647,7.014-0.948,10.603c-1.409,16.78,11.855,31.171,28.694,31.171H1439.385z"/>

								<linearGradient id="SVGID_00000118366044683373370760000015194054496618548634_" gradientUnits="userSpaceOnUse" x1="1532.6365" y1="1400.9358" x2="1567.8243" y2="1165.4489">
								<stop offset="0" style="stop-color:#FEBBBA"/>
								<stop offset="1" style="stop-color:#FF928E"/>
							</linearGradient>
							<path style="fill:url(#SVGID_00000118366044683373370760000015194054496618548634_);" d="M1518.298,1480.153h62.072         l16.833-176.933c0,0-14.251-3.67-21.377-28.61c-7.126-24.94-10.69-74.874-10.69-74.874l-64.132,14.224         c0,0,7.126,67.896-7.126,99.962L1518.298,1480.153z"/>

								<linearGradient id="SVGID_00000156558736936091298790000011506668618558294660_" gradientUnits="userSpaceOnUse" x1="1515.5992" y1="1451.8494" x2="1532.5741" y2="1338.2491">
								<stop offset="0" style="stop-color:#09005D"/>
								<stop offset="1" style="stop-color:#1A0F91"/>
							</linearGradient>
							<path style="fill:url(#SVGID_00000156558736936091298790000011506668618558294660_);" d="M1613.871,1480.153l8.931-111.688         c-65.018,38.897-131.88,37.012-199.693,16.384l19.247,95.304H1613.871z"/>

								<linearGradient id="SVGID_00000136383608100162130340000009090748303902322598_" gradientUnits="userSpaceOnUse" x1="1565.4994" y1="1201.3752" x2="1703.2709" y2="935.9128">
								<stop offset="0" style="stop-color:#FE7062"/>
								<stop offset="1" style="stop-color:#FF928E"/>
							</linearGradient>
							<path style="fill:url(#SVGID_00000136383608100162130340000009090748303902322598_);" d="M1533.533,1479.953         c-19.267-92.931-39.654-194.648-39.654-194.648l-10.689,21.322l-99.762,28.587c4.885,22.795,19.798,85.535,34.794,144.739         H1533.533z"/>

								<linearGradient id="SVGID_00000129925975123719531930000006918433518944367757_" gradientUnits="userSpaceOnUse" x1="1687.8593" y1="1264.8773" x2="1825.6309" y2="999.4144">
								<stop offset="0" style="stop-color:#FE7062"/>
								<stop offset="1" style="stop-color:#FF928E"/>
							</linearGradient>
							<path style="fill:url(#SVGID_00000129925975123719531930000006918433518944367757_);" d="M1676.087,1479.953         c5.314-28.466,9.997-50.688,9.997-50.688l21.569-116.229c-6.788-6.788-113.301-21.394-113.301-21.394l-11.401-17.018         c0,0-14.223,103.393-26.38,205.33H1676.087z"/>

								<linearGradient id="SVGID_00000121996469221842924960000001728864989244618420_" gradientUnits="userSpaceOnUse" x1="1522.7366" y1="1164.3788" x2="1599.0601" y2="920.6797">
								<stop offset="0" style="stop-color:#FEBBBA"/>
								<stop offset="1" style="stop-color:#FF928E"/>
							</linearGradient>
							<path style="fill:url(#SVGID_00000121996469221842924960000001728864989244618420_);" d="M1468.938,1103.483         c0,0-3.563,85.51,7.126,99.762c10.689,14.252,24.94,46.318,49.881,49.881c24.941,3.563,64.133-67.695,64.133-71.259         c0-3.563-3.563-96.199-3.563-96.199S1511.693,1025.099,1468.938,1103.483z"/>

								<linearGradient id="SVGID_00000095308076585332496000000007505805323959639967_" gradientUnits="userSpaceOnUse" x1="1444.7567" y1="967.1318" x2="1753.6781" y2="1459.5393">
								<stop offset="0" style="stop-color:#09005D"/>
								<stop offset="1" style="stop-color:#1A0F91"/>
							</linearGradient>
							<path style="fill:url(#SVGID_00000095308076585332496000000007505805323959639967_);" d="M1454.686,1089.231         c0,0-14.252,42.755,28.504,28.504c42.755-14.252,42.755-14.252,42.755-14.252s42.755-24.94,49.881-14.252         c7.126,10.689,14.252,37.012,14.252,37.012s14.251-37.012,0-58.389C1575.826,1046.476,1486.753,1028.662,1454.686,1089.231z"/>
						</g>
					</g>
				</g>
				<g>
					<g style="opacity:0.6;">
						<path style="fill:#FFFFFF;" d="M2506.041,1630.46c2.524,0,4.505-2.063,4.402-4.585l-1.298-31.882        c-0.103-2.522-2.251-4.611-4.775-4.644l-1080.995-13.821c-2.524-0.032-3.678,1.795-2.566,4.061l22.949,46.752        c1.112,2.266,4.087,4.119,6.611,4.119H2506.041z"/>
					</g>
					<g style="opacity:0.6;">
						<path style="fill:#FFFFFF;" d="M1423.375,1699.675c-2.524-0.032-3.678,1.795-2.566,4.061l22.949,46.752        c1.112,2.266,4.087,4.119,6.611,4.119h1055.672c2.524,0,4.505-2.063,4.402-4.585l-1.298-31.882        c-0.103-2.522-2.251-4.611-4.775-4.644L1423.375,1699.675z"/>
					</g>
					<g style="opacity:0.6;">
						<path style="fill:#FFFFFF;" d="M1430.095,1825.134c-2.524-0.037-3.771,1.829-2.772,4.147l20.067,46.563        c0.999,2.318,3.881,4.214,6.405,4.214h925.737c2.524,0,4.515-2.064,4.425-4.586l-1.139-31.88        c-0.09-2.522-2.229-4.616-4.752-4.653L1430.095,1825.134z"/>
					</g>

						<linearGradient id="SVGID_00000181783492902513745330000013476118527680851371_" gradientUnits="userSpaceOnUse" x1="1288.5941" y1="1511.8232" x2="1192.5786" y2="1954.5618">
						<stop offset="0" style="stop-color:#FE7062"/>
						<stop offset="1" style="stop-color:#FF928E"/>
					</linearGradient>

						<circle style="fill:url(#SVGID_00000181783492902513745330000013476118527680851371_);" cx="1268.435" cy="1604.778" r="48.01"/>
				</g>
				<g>
					<g style="opacity:0.6;">
						<path style="fill:#FFFFFF;" d="M2519.482,2100.901c2.524,0,4.505-2.063,4.402-4.585l-1.298-31.882        c-0.103-2.522-2.251-4.612-4.775-4.644l-1080.995-13.821c-2.524-0.032-3.678,1.795-2.566,4.061l22.949,46.752        c1.112,2.266,4.087,4.119,6.611,4.119H2519.482z"/>
					</g>
					<g style="opacity:0.6;">
						<path style="fill:#FFFFFF;" d="M1436.816,2176.846c-2.524-0.038-3.791,1.836-2.817,4.165l19.464,46.524        c0.974,2.328,3.836,4.233,6.36,4.233h898.366c2.524,0,4.517-2.064,4.43-4.586l-1.106-31.88        c-0.088-2.522-2.224-4.617-4.748-4.655L1436.816,2176.846z"/>
					</g>
					<g style="opacity:0.6;">
						<path style="fill:#FFFFFF;" d="M1441.296,2306.768c-2.524-0.032-3.683,1.797-2.577,4.065l22.803,46.743        c1.107,2.268,4.077,4.124,6.601,4.124h1049.118c2.524,0,4.505-2.063,4.403-4.585l-1.29-31.882        c-0.102-2.522-2.25-4.612-4.774-4.644L1441.296,2306.768z"/>
					</g>

						<ellipse transform="matrix(0.7071 -0.7071 0.7071 0.7071 -1097.3228 1502.386)" style="fill:#7D97F4;" cx="1264.879" cy="2075.779" rx="48.01" ry="48.01"/>
				</g>
				<g>
					<g style="opacity:0.6;">
						<path style="fill:#FFFFFF;" d="M2513.881,2615.025c2.524,0,4.505-2.063,4.402-4.585l-1.298-31.882        c-0.103-2.522-2.251-4.611-4.775-4.644l-1080.995-13.821c-2.524-0.032-3.678,1.795-2.566,4.061l22.949,46.752        c1.112,2.266,4.087,4.119,6.611,4.119H2513.881z"/>
					</g>
					<g style="opacity:0.6;">
						<path style="fill:#FFFFFF;" d="M1431.215,2684.251c-2.523-0.038-3.799,1.838-2.834,4.17l19.247,46.511        c0.965,2.332,3.82,4.24,6.344,4.24h888.534c2.524,0,4.518-2.064,4.431-4.586l-1.094-31.88        c-0.087-2.522-2.222-4.617-4.746-4.656L1431.215,2684.251z"/>
					</g>
					<g style="opacity:0.6;">
						<path style="fill:#FFFFFF;" d="M1437.935,2816.438c-2.523-0.047-3.926,1.871-3.118,4.262l15.662,46.297        c0.809,2.391,3.535,4.347,6.059,4.347h724.673c2.524,0,4.531-2.064,4.46-4.587l-0.894-31.878        c-0.071-2.523-2.193-4.625-4.717-4.672L1437.935,2816.438z"/>
					</g>

						<linearGradient id="SVGID_00000008115210763503229120000008683475298490964359_" gradientUnits="userSpaceOnUse" x1="1149.7026" y1="2502.3218" x2="1780.1379" y2="3006.2676">
						<stop offset="0" style="stop-color:#08427c"/>
						<stop offset="1" style="stop-color:#5883C8"/>
					</linearGradient>

						<circle style="fill:url(#SVGID_00000008115210763503229120000008683475298490964359_);" cx="1258.952" cy="2589.651" r="48.01"/>
				</g>
			</g>

				<linearGradient id="SVGID_00000083810152735563555570000017086426657680468157_" gradientUnits="userSpaceOnUse" x1="1813.0734" y1="1112.5055" x2="1984.4402" y2="-6.4147">
				<stop offset="0" style="stop-color:#09005D"/>
				<stop offset="1" style="stop-color:#1A0F91"/>
			</linearGradient>
			<path style="fill:url(#SVGID_00000083810152735563555570000017086426657680468157_);" d="M1962.075,492.607     c-51.628-35.917-96.52-35.205-128.121-25.88c-28.828,8.506-47.512,36.338-44.77,66.269l13.628,148.753l162.171,14.392     C1964.984,696.14,2063.326,563.045,1962.075,492.607z M1890.758,612.614c-22.333,0-40.437-18.104-40.437-40.437     c0-22.333,18.104-40.438,40.437-40.438c22.333,0,40.437,18.104,40.437,40.438C1931.195,594.51,1913.091,612.614,1890.758,612.614     z"/>
			<g>
				<path style="fill:#BDD0FB;" d="M1819.012,619.174c-2,0-3.707-1.525-3.892-3.558l-2.171-23.69      c-0.198-2.152,1.387-4.055,3.539-4.254c2.195-0.206,4.058,1.388,4.253,3.543l2.171,23.69c0.199,2.152-1.387,4.054-3.539,4.253      C1819.251,619.17,1819.131,619.174,1819.012,619.174z M1814.759,572.75c-2,0-3.707-1.525-3.892-3.558l-1.649-17.984      c-2.614-28.513,15.328-55.061,42.658-63.128c19.356-5.713,39.299-6.531,59.27-2.434c2.117,0.432,3.481,2.503,3.048,4.62      c-0.434,2.114-2.486,3.466-4.619,3.046c-18.708-3.829-37.372-3.069-55.485,2.274c-23.757,7.013-39.352,30.106-37.08,54.912      l1.649,17.984c0.199,2.152-1.387,4.055-3.539,4.254C1814.998,572.746,1814.877,572.75,1814.759,572.75z"/>
			</g>

				<linearGradient id="SVGID_00000165942230609199601140000001762966706272307347_" gradientUnits="userSpaceOnUse" x1="1912.0951" y1="493.5858" x2="1816.3308" y2="1431.0615">
				<stop offset="0" style="stop-color:#09005D"/>
				<stop offset="1" style="stop-color:#1A0F91"/>
			</linearGradient>
			<path style="fill:url(#SVGID_00000165942230609199601140000001762966706272307347_);" d="M1581.478,777.879v-74.788     c0-25.817,21.397-46.494,47.2-45.61l515.632,17.667c22.883,0.784,41.415,18.846,42.786,41.702l4.309,71.861L1581.478,777.879z"/>
			<path style="fill:#BDD0FB;" d="M1773.744,685.661h-22.174c-2.161,0-3.913-1.75-3.913-3.913c0-2.163,1.752-3.913,3.913-3.913     h22.174c2.161,0,3.913,1.75,3.913,3.913C1777.658,683.911,1775.906,685.661,1773.744,685.661z"/>
			<path style="fill:#BDD0FB;" d="M1609.387,754.395c-2.161,0-3.913-1.75-3.913-3.913v-30.255c0-23.376,19.018-42.392,42.394-42.392     h81.525c2.161,0,3.913,1.75,3.913,3.913c0,2.163-1.752,3.913-3.913,3.913h-81.525c-19.06,0-34.568,15.508-34.568,34.566v30.255     C1613.301,752.645,1611.548,754.395,1609.387,754.395z"/>

				<linearGradient id="SVGID_00000152243581893894758200000016632348268386241159_" gradientUnits="userSpaceOnUse" x1="2110.8079" y1="386.9782" x2="1656.8687" y2="1220.5029">
				<stop offset="0" style="stop-color:#08427c"/>
				<stop offset="1" style="stop-color:#5883C8"/>
			</linearGradient>
			<path style="fill:url(#SVGID_00000152243581893894758200000016632348268386241159_);" d="M1371.38,796.765     c1.244-25.898,22.604-46.256,48.532-46.257l901.679-0.025c32.422-0.001,60.14,23.331,65.67,55.278l0.763,4.409     c6.058,34.992-20.883,66.997-56.396,66.997h-925.07c-21.253,0-38.189-17.77-37.169-38.998L1371.38,796.765z"/>
		</g>

		<g>
			<g>
				<g>

						<linearGradient id="SVGID_00000104688159269063608220000014101021653711298699_" gradientUnits="userSpaceOnUse" x1="2569.927" y1="2115.1018" x2="1931.472" y2="2417.5281">
						<stop offset="0" style="stop-color:#09005D"/>
						<stop offset="1" style="stop-color:#1A0F91"/>
					</linearGradient>
					<path style="fill:url(#SVGID_00000104688159269063608220000014101021653711298699_);" d="M3199.01,2339.414L1890.816,1726.85       l-90.89,192.173L3106.352,2545c27.748,13.295,60.975,4.728,78.942-20.25c18.455-25.657,37.683-66.673,44.736-130.207       C3232.594,2371.445,3220.058,2349.27,3199.01,2339.414z"/>
					<g>

							<linearGradient id="SVGID_00000103961451980107985560000007433367075982703273_" gradientUnits="userSpaceOnUse" x1="-494.3401" y1="1735.272" x2="-234.3253" y2="1509.2589" gradientTransform="matrix(-0.9954 -0.0961 -0.0961 0.9954 1448.7313 109.2454)">
							<stop offset="0" style="stop-color:#09005D"/>
							<stop offset="1" style="stop-color:#1A0F91"/>
						</linearGradient>
						<path style="fill:url(#SVGID_00000103961451980107985560000007433367075982703273_);" d="M1476.68,1634.939l184.911,41.038        c-2.683,25.736-14.334,58.243-46.571,93.713l-146.326-118.174C1460.927,1645.242,1466.932,1632.776,1476.68,1634.939z"/>

							<linearGradient id="SVGID_00000070118978670320040070000009824496354938324098_" gradientUnits="userSpaceOnUse" x1="-267.0085" y1="1403.5449" x2="-1229.7318" y2="2392.937" gradientTransform="matrix(-0.9954 -0.0961 -0.0961 0.9954 1448.7313 109.2454)">
							<stop offset="0" style="stop-color:#FE7062"/>
							<stop offset="1" style="stop-color:#FF928E"/>
						</linearGradient>
						<path style="fill:url(#SVGID_00000070118978670320040070000009824496354938324098_);" d="M1890.816,1726.85        c-3.471,125.598-90.89,192.173-90.89,192.173l-184.905-149.332c32.237-35.47,43.888-67.977,46.571-93.713L1890.816,1726.85z"/>
					</g>
				</g>
				<path style="fill:#7D97F4;" d="M3176.312,2398.843c1.641,0.158,3.275-0.712,4.009-2.294c0.935-2.001,0.066-4.381-1.936-5.313      l-1251.873-583.15c-2.01-0.932-4.385-0.066-5.313,1.936c-0.935,2.002-0.066,4.382,1.936,5.313l1251.873,583.15      C3175.433,2398.684,3175.873,2398.801,3176.312,2398.843z"/>
				<path style="fill:#7D97F4;" d="M3146.414,2474.793c1.641,0.158,3.275-0.712,4.009-2.294c0.935-2.001,0.066-4.382-1.937-5.313      l-1251.872-583.153c-2.01-0.932-4.381-0.07-5.312,1.936c-0.935,2.002-0.066,4.381,1.936,5.312l1251.872,583.154      C3145.534,2474.634,3145.975,2474.751,3146.414,2474.793z"/>
			</g>
			<g>

					<linearGradient id="SVGID_00000007403874302269441910000006175304724127325336_" gradientUnits="userSpaceOnUse" x1="2427.5532" y1="3252.0872" x2="2770.2849" y2="2702.708">
					<stop offset="0" style="stop-color:#FEBBBA"/>
					<stop offset="1" style="stop-color:#FF928E"/>
				</linearGradient>
				<path style="fill:url(#SVGID_00000007403874302269441910000006175304724127325336_);" d="M2580.946,2590.771l95.744,23.936      l-23.935,179.521c0,0,35.904,35.905,47.872,83.777c11.968,47.872,23.003,248.881,23.003,248.881l22.718,13.735l2.763,11.465      l-66.096,88.871l10.961-70.734c1.74-11.228-1.274-34-0.325-34.477c-35.905-95.745-112.705-365.454-112.705-365.454V2590.771z"/>

					<linearGradient id="SVGID_00000008114858120021623840000013979828065776165055_" gradientUnits="userSpaceOnUse" x1="2578.4578" y1="2560.2446" x2="2573.4175" y2="3260.8306">
					<stop offset="0" style="stop-color:#FEBBBA"/>
					<stop offset="1" style="stop-color:#FF928E"/>
				</linearGradient>
				<path style="fill:url(#SVGID_00000008114858120021623840000013979828065776165055_);" d="M2552.97,3153.316      c1.036-0.017,2.054,0.066,3.096,0.001c-4.626-57.719-25.771-311.749-46.929-406.961      c-23.936-107.713,35.904-323.139,35.904-323.139l107.714,107.714l-59.841,203.457c41.009,61.512-6.689,421.743-5.661,421.586      l-0.066,0.801l15.614,21.469l-1.899,11.64l-95.385,56.287l37.531-60.948C2549.005,3175.548,2552.297,3164.58,2552.97,3153.316z"/>

					<linearGradient id="SVGID_00000165932255007576611140000001848795787676347581_" gradientUnits="userSpaceOnUse" x1="-2376.7908" y1="2124.281" x2="-2262.2146" y2="2124.281" gradientTransform="matrix(-1 0 0 1 390.5403 0)">
					<stop offset="0" style="stop-color:#FEBBBA"/>
					<stop offset="1" style="stop-color:#FF928E"/>
				</linearGradient>
				<path style="fill:url(#SVGID_00000165932255007576611140000001848795787676347581_);" d="M2674.123,1945.504      c0,0,209.719,236.364,0,357.554l-21.368-15.472c0,0,104.118-99.702,0-221.752L2674.123,1945.504z"/>

					<linearGradient id="SVGID_00000118359706618701362490000009766380241269519281_" gradientUnits="userSpaceOnUse" x1="2509.5059" y1="3033.2295" x2="2409.2458" y2="3202.9006" gradientTransform="matrix(1 0 0 1 164.4937 0)">
					<stop offset="0" style="stop-color:#09005D"/>
					<stop offset="1" style="stop-color:#1A0F91"/>
				</linearGradient>
				<path style="fill:url(#SVGID_00000118359706618701362490000009766380241269519281_);" d="M2499.234,3255h30.44      c5.698,0,11.071-2.616,14.546-7.131c9.489-12.331,29.149-36.388,38.551-37.015c12.656-0.846,11.036,44.146,11.036,44.146h7.094      l8.986-55.907c2.261-14.066-4.734-28.002-17.366-34.592l0,0c0,0-2.893,21.395-18.579,30.858      c-15.686,9.464-63.833,43.354-63.833,43.354s-5.897-0.841-12.372,0.329C2488.133,3240.778,2489.475,3255,2499.234,3255z"/>

					<linearGradient id="SVGID_00000034781887633370769910000003374031570139919794_" gradientUnits="userSpaceOnUse" x1="729.3909" y1="3573.2612" x2="629.1363" y2="3742.9229" gradientTransform="matrix(0.9218 -0.3878 0.3878 0.9218 697.678 -31.6312)">
					<stop offset="0" style="stop-color:#09005D"/>
					<stop offset="1" style="stop-color:#1A0F91"/>
				</linearGradient>
				<path style="fill:url(#SVGID_00000034781887633370769910000003374031570139919794_);" d="M2680.649,3251.531l28.057-11.804      c5.251-2.209,9.19-6.704,10.643-12.214c3.966-15.045,12.759-44.843,21.181-49.068c11.337-5.687,27.292,36.413,27.292,36.413      l6.539-2.751l-13.397-55.017c-3.37-13.844-15.222-23.975-29.421-25.152l0,0c0,0,5.629,20.843-5.16,35.648      c-10.789,14.805-42.027,64.715-42.027,64.715s-5.762,1.511-11.276,5.1C2664.901,3242.725,2671.653,3255.315,2680.649,3251.531z"/>

					<linearGradient id="SVGID_00000154427797616546528640000017252010606273418882_" gradientUnits="userSpaceOnUse" x1="2858.7085" y1="1898.0048" x2="2576.416" y2="2502.9167">
					<stop offset="0" style="stop-color:#09005D"/>
					<stop offset="1" style="stop-color:#1A0F91"/>
				</linearGradient>
				<path style="fill:url(#SVGID_00000154427797616546528640000017252010606273418882_);" d="M2517.611,2241.087      c0,0,3.521,21.573-1.637,80.879c-5.157,59.307-29.808,198.546-24.789,331.77c0,0,70.078,16.331,191.83,8.595      c0,0,51.383-208.001,38.864-287.075c-12.517-79.075-80.418-135.802-80.418-135.802L2517.611,2241.087z"/>

					<linearGradient id="SVGID_00000051366063732585257640000004974314586044986026_" gradientUnits="userSpaceOnUse" x1="-2251.6616" y1="1868.6366" x2="-2170.2859" y2="1868.6366" gradientTransform="matrix(-1 0 0 1 390.5403 0)">
					<stop offset="0" style="stop-color:#FEBBBA"/>
					<stop offset="1" style="stop-color:#FF928E"/>
				</linearGradient>
				<polygon style="fill:url(#SVGID_00000051366063732585257640000004974314586044986026_);" points="2569.392,1844.789      2560.826,1945.504 2642.202,1945.504 2621.969,1791.77     "/>

					<linearGradient id="SVGID_00000135652913757988391230000004994067254398105518_" gradientUnits="userSpaceOnUse" x1="-2105.051" y1="1956.803" x2="-2535.9653" y2="2509.6199" gradientTransform="matrix(-1 0 0 1 390.5403 0)">
					<stop offset="0" style="stop-color:#FE7062"/>
					<stop offset="1" style="stop-color:#FF928E"/>
				</linearGradient>
				<path style="fill:url(#SVGID_00000135652913757988391230000004994067254398105518_);" d="M2666.308,1931.578      c-28.085-1.549-90.875-4.415-135.358-1.991c-23.42,1.276-43.039,18.079-47.83,41.04l-10.849,51.993      c-4.042,19.366-3.437,39.414,1.763,58.501l43.577,159.967c0,0,38.76,23.292,123.851-1.633c0,0,74.728-178.198,44.139-292.192      C2683.225,1938.409,2675.461,1932.082,2666.308,1931.578z"/>

					<linearGradient id="SVGID_00000012471220825785402730000001350973739415193020_" gradientUnits="userSpaceOnUse" x1="-1774.2214" y1="1915.0306" x2="-2478.0171" y2="2318.2222" gradientTransform="matrix(-1 0 0 1 390.5403 0)">
					<stop offset="0" style="stop-color:#FEBBBA"/>
					<stop offset="1" style="stop-color:#FF928E"/>
				</linearGradient>
				<path style="fill:url(#SVGID_00000012471220825785402730000001350973739415193020_);" d="M2485.246,1961.299      c-11.986,31.575-22.812,64.684-34.443,95.692c-5.914,15.519-11.912,30.733-18.33,44.706c-3.246,6.958-6.812,13.352-10.084,19.15      c-3.276,5.739-6.965,10.512-8.887,12.71c-0.377,0.326,0.886,0.575,1.308,0.595c0.255,0.032-8.103,1.371-10.667,1.801      l-10.018-0.06c-14.358-0.739-30.62-3.27-46.931-6.439c-32.901-6.134-67.108-14.748-102.232-21.264l-0.27-0.05      c-6.72-1.247-13.179,3.191-14.427,9.912c-0.822,4.433,0.846,8.763,3.992,11.548c14.162,12.466,29.174,22.707,44.746,32.675      c7.838,4.792,15.813,9.49,23.919,14.001c8.266,4.213,16.555,8.46,25.165,12.387c17.334,7.553,35.241,14.51,55.868,18.979      c5.422,0.907,10.772,1.858,16.35,2.606c6.256,0.217,11.938,0.771,18.77,0.376c3.629-0.36,7.275-0.804,10.912-1.334      c1.939-0.342,3.364-0.378,5.713-1.026c2.492-0.748,4.979-1.585,7.43-2.506c5.123-1.838,8.434-4.063,12.595-6.378      c3.455-2.278,6.607-4.66,9.661-7.102c11.278-9.606,18.281-19.14,24.452-28.293c6.155-9.145,11.034-18.307,15.413-27.288      c8.784-17.936,15.645-35.708,21.21-53.605c11.279-35.862,18.922-71.108,22.147-108.546c1.545-17.932-11.74-33.721-29.673-35.266      c-14.842-1.279-28.216,7.602-33.26,20.868L2485.246,1961.299z"/>

					<linearGradient id="SVGID_00000069376734334827697130000018230332205846127264_" gradientUnits="userSpaceOnUse" x1="-1704.2911" y1="2037.099" x2="-2408.0857" y2="2440.29" gradientTransform="matrix(-1 0 0 1 390.5403 0)">
					<stop offset="0" style="stop-color:#FEBBBA"/>
					<stop offset="1" style="stop-color:#FF928E"/>
				</linearGradient>
				<path style="fill:url(#SVGID_00000069376734334827697130000018230332205846127264_);" d="M2256.019,2124.281l-14.521-34.47      l-76.429-19.044c0,0-6.115,13.249,25.986,19.044c0,0-11.465,12.674-5.35,27.577      C2191.819,2132.292,2256.783,2147.223,2256.019,2124.281z"/>

					<linearGradient id="SVGID_00000137111298779554565630000012613294169070052513_" gradientUnits="userSpaceOnUse" x1="2660.406" y1="1631.6779" x2="2383.1956" y2="2075.2144">
					<stop offset="0" style="stop-color:#FEBBBA"/>
					<stop offset="1" style="stop-color:#FF928E"/>
				</linearGradient>
				<path style="fill:url(#SVGID_00000137111298779554565630000012613294169070052513_);" d="M2534.938,1728.475      c-2.906,1.714-25.8,82.46-6.615,116.314c19.184,33.854,77.769-4.066,93.646-53.02      C2637.845,1742.816,2612.337,1682.829,2534.938,1728.475z"/>

					<linearGradient id="SVGID_00000003801887331851914020000004443509772947352232_" gradientUnits="userSpaceOnUse" x1="2733.4443" y1="1683.877" x2="2847.6934" y2="2349.2126">
					<stop offset="0" style="stop-color:#09005D"/>
					<stop offset="1" style="stop-color:#1A0F91"/>
				</linearGradient>
				<path style="fill:url(#SVGID_00000003801887331851914020000004443509772947352232_);" d="M2686.777,1791.77      c13.141,64.382,56.681,46.762,87.518,75.406c49.98,46.424,121.479-1.433,190.988,42.56      c50.18,31.759,74.358,113.013,50.277,178.615c-33.354,90.861-147.333,128.227-206.4,100.553      c-56.452-26.448-48.413-105.662-124.368-136.276c-32.246-12.997-48.165-4.552-67.477-23.815      c-33.806-33.721-24.684-99.159-21.17-124.369c7.626-54.701,25.967-64.604,17.2-88.645c-17.049-46.76-96.572-37.112-103.2-70.123      c-6.034-30.061,51.605-87.04,105.846-78.062C2699.917,1681.506,2680.923,1763.087,2686.777,1791.77z"/>
				<path style="fill:#91B3FA;" d="M2990.497,2072.963c0.995,0,1.892-0.674,2.137-1.682c10.745-44.607,5.87-81.19-14.496-108.735      c-33.797-45.713-99.482-50.237-100.143-50.276c-1.034-0.171-2.249,0.846-2.326,2.061c-0.073,1.209,0.845,2.252,2.059,2.325      c0.64,0.039,64.338,4.459,96.896,48.529c19.542,26.447,24.164,61.798,13.736,105.067c-0.284,1.18,0.442,2.368,1.622,2.652      C2990.153,2072.941,2990.33,2072.963,2990.497,2072.963z"/>
				<path style="fill:#91B3FA;" d="M2775.362,2113.798c0.09,0,0.185-0.013,0.279-0.034c0.584-0.155,0.936-0.755,0.786-1.344      c-10.467-40.157-28.833-68.045-54.582-82.898c-18.73-10.805-36.273-11.809-51.746-12.697      c-14.921-0.859-27.807-1.601-38.179-10.823c-21.439-19.065-20.198-64.904,3.691-136.245c0.193-0.575-0.121-1.198-0.695-1.391      c-0.579-0.193-1.198,0.12-1.391,0.695c-24.194,72.251-25.224,118.875-3.064,138.58c10.942,9.733,24.18,10.497,39.513,11.376      c15.229,0.876,32.493,1.867,50.774,12.41c25.219,14.543,43.237,41.981,53.549,81.55      C2774.426,2113.471,2774.872,2113.798,2775.362,2113.798z"/>
				<path style="fill:#91B3FA;" d="M2655.689,1775.792c0.116,0,0.231-0.016,0.352-0.055c0.575-0.193,0.884-0.819,0.69-1.394      c-8.319-24.752-32.291-21.075-57.69-17.17c-16.074,2.472-32.694,5.017-46.792,0.845c-10.518-3.119-16.765-7.951-18.572-14.366      c-3.086-10.921,7.72-23.099,7.827-23.224c0.407-0.45,0.369-1.145-0.081-1.549c-0.446-0.408-1.146-0.369-1.55,0.081      c-0.48,0.532-11.719,13.187-8.315,25.284c2.025,7.188,8.775,12.531,20.065,15.878c14.577,4.317,31.438,1.729,47.752-0.776      c25.495-3.913,47.538-7.308,55.271,15.702C2654.8,1775.505,2655.23,1775.792,2655.689,1775.792z"/>
			</g>
		</g>
	</g>
</g>
</svg>