<svg xmlns="http://www.w3.org/2000/svg" xmlns:xlink="http://www.w3.org/1999/xlink" version="1.1" x="0px" y="0px" style="enable-background:new 0 0 3710 3710;" xml:space="preserve" viewBox="412.73 441.53 2884.55 2848.25">

<g id="Illustration">
	<g>
		<linearGradient id="SVGID_1_" gradientUnits="userSpaceOnUse" x1="3651.3721" y1="4133.5571" x2="1110.8595" y2="978.4">
			<stop offset="0" style="stop-color:#DAE3FE"/>
			<stop offset="1" style="stop-color:#E9EFFD"/>
		</linearGradient>
		<path style="fill:url(#SVGID_1_);" d="M2960.304,2883.833c-58.784,61.136-114.406,100.563-158.351,131.712    c-516.569,366.155-1127.807,259.422-1257.713,233.357c-191.829-38.49-562.632-112.889-830.715-424.332    c-405.588-471.186-342.432-1213.526-27.831-1703.555c57.545-89.635,361.518-587.128,979.339-666.91    c373.899-48.283,809.745,49.098,1125.373,310.329C3452.938,1312.781,3405.773,2420.538,2960.304,2883.833z"/>

		<g>

				<linearGradient id="SVGID_00000116939170491767310250000015541740290813856653_" gradientUnits="userSpaceOnUse" x1="2341.1826" y1="440.3481" x2="-687.7002" y2="5935.6123">
				<stop offset="0" style="stop-color:#09005D"/>
				<stop offset="1" style="stop-color:#1A0F91"/>
			</linearGradient>
			<path style="fill:url(#SVGID_00000116939170491767310250000015541740290813856653_);" d="M725.786,589.298     c-9.283,438.044-39.387,1949.019-25.016,2484.463c1.523,56.724,40.393,102.253,88.882,104.11     c239.818,9.181,1118.978,32.451,1511.239,13.199c81.702-4.01,146.674-81.43,148.37-177.073     c8.153-459.783,26.135-1752.975-16.609-2345.387c-5.123-70.979-52.745-127.503-113.332-134.595     c-261.173-30.565-1144.113-105.279-1483.004-79.551C775.196,459.104,727.304,517.67,725.786,589.298z"/>
			<path style="fill:#7D97F4;" d="M832.792,723.693c-12.908,353.567-53.625,1529.797-40.703,1964.742     c1.889,63.574,44.719,114.977,99.002,118.695c223.499,15.3,986.021,49.036,1313.839,18.328     c59.028-5.53,105.349-61.377,108.535-130.553c16.613-360.71,64.31-1455.946,51.924-1886.018     c-1.977-68.608-47.406-124.639-105.851-130.777c-241.79-25.397-1052.057-85.825-1330.625-68.045     C876.62,613.403,835.027,662.483,832.792,723.693z"/>

				<linearGradient id="SVGID_00000085947725026400266110000000902788105702505615_" gradientUnits="userSpaceOnUse" x1="1432.551" y1="-1134.0284" x2="1536.0515" y2="-78.3152">
				<stop offset="0" style="stop-color:#4F52FF"/>
				<stop offset="1" style="stop-color:#4042E2"/>
			</linearGradient>
			<path style="fill:url(#SVGID_00000085947725026400266110000000902788105702505615_);" d="M1432.307,541.354L1432.307,541.354     c0,13.441,8.953,24.527,20.427,25.228c56.643,3.47,216.21,13.289,287.523,18.129c14.061,0.955,25.097-13.831,22.429-30.009     l-0.455-2.761c-1.821-11.039-9.646-19.348-19.216-20.374c-48.204-5.168-193.655-19.496-290.026-15.471     C1441.413,516.581,1432.307,527.803,1432.307,541.354z"/>
			<g>
				<g>

						<linearGradient id="SVGID_00000093167616515160432560000004306391018037860029_" gradientUnits="userSpaceOnUse" x1="1209.2583" y1="1130.7477" x2="1878.2675" y2="1130.7477">
						<stop offset="0" style="stop-color:#4F52FF"/>
						<stop offset="1" style="stop-color:#4042E2"/>
					</linearGradient>

						<circle style="fill:url(#SVGID_00000093167616515160432560000004306391018037860029_);" cx="1543.763" cy="1130.748" r="334.505"/>
					<path style="fill:#FFFFFF;" d="M1646.177,1004.349c0,56.64-45.916,117.787-102.556,117.787       c-56.64,0-102.556-61.147-102.556-117.787c0-56.64,45.916-96.823,102.556-96.823       C1600.261,907.526,1646.177,947.709,1646.177,1004.349z"/>
					<path style="fill:#FFFFFF;" d="M1416.349,1340.205h250.357c26.354,0,49.687-17.033,57.717-42.133l13.472-42.106       c9.864-30.83-6.173-64.209-36.574-75.324c-101.886-37.253-207.239-32.473-315.162,3.438       c-30.234,10.06-47.012,42.4-38.669,73.152l10.374,38.24C1365.026,1321.875,1388.991,1340.205,1416.349,1340.205z"/>
				</g>
				<g style="opacity:0.71;">
					<path style="opacity:0.65;fill:#FFFFFF;" d="M2185.341,1999.462H964.518c-3.728,0-6.75-3.022-6.75-6.75v-176.396       c0-3.728,3.022-6.75,6.75-6.75h1220.823c3.728,0,6.75,3.022,6.75,6.75v176.396       C2192.091,1996.44,2189.069,1999.462,2185.341,1999.462z"/>
					<path style="opacity:0.65;fill:#FFFFFF;" d="M2178.68,2309.292H957.857c-3.728,0-6.75-3.022-6.75-6.75v-176.396       c0-3.728,3.022-6.75,6.75-6.75H2178.68c3.728,0,6.75,3.022,6.75,6.75v176.396       C2185.43,2306.27,2182.408,2309.292,2178.68,2309.292z"/>
					<path style="opacity:0.65;fill:#FFFFFF;" d="M1940.321,2678.829h-780.717c-4.601,0-8.332-3.73-8.332-8.331v-225.439       c0-4.601,3.73-8.331,8.332-8.331h780.717c4.601,0,8.331,3.73,8.331,8.331v225.439       C1948.652,2675.099,1944.922,2678.829,1940.321,2678.829z"/>
				</g>
				<path style="opacity:0.75;fill:#FFFFFF;" d="M1735.635,1958.082h-711.19c-6.627,0-11.999-5.372-11.999-11.999v-81.504      c0-6.627,5.372-11.999,11.999-11.999h711.19c6.627,0,11.999,5.372,11.999,11.999v81.504      C1747.635,1952.709,1742.263,1958.082,1735.635,1958.082z"/>
				<g style="opacity:0.75;">

						<ellipse transform="matrix(0.9239 -0.3827 0.3827 0.9239 -766.3589 565.3729)" style="fill:#FFFFFF;" cx="1037.981" cy="2209.059" rx="43.312" ry="43.312"/>
					<circle style="fill:#FFFFFF;" cx="1156.819" cy="2211.282" r="43.312"/>

						<ellipse transform="matrix(0.2298 -0.9732 0.9732 0.2298 -1178.3975 2944.6963)" style="fill:#FFFFFF;" cx="1271.193" cy="2216.833" rx="43.312" ry="43.312"/>
					<circle style="fill:#FFFFFF;" cx="1390.031" cy="2219.056" r="43.312"/>
					<circle style="fill:#FFFFFF;" cx="1508.853" cy="2217.941" r="43.312"/>
					<circle style="fill:#FFFFFF;" cx="1627.691" cy="2220.165" r="43.312"/>
				</g>
			</g>
		</g>
		<g>

				<linearGradient id="SVGID_00000170996329686889595280000016868404043876773028_" gradientUnits="userSpaceOnUse" x1="-5865.7163" y1="3240.6824" x2="-5491.1108" y2="2276.3142" gradientTransform="matrix(-1 0 0 1 -3446.3174 0)">
				<stop offset="0" style="stop-color:#FEBBBA"/>
				<stop offset="1" style="stop-color:#FF928E"/>
			</linearGradient>
			<path style="fill:url(#SVGID_00000170996329686889595280000016868404043876773028_);" d="M2122.281,2361.547l132.688,33.172     l-33.171,248.792c0,0,49.759,49.758,66.344,116.102c16.587,66.345,31.878,344.914,31.878,344.914l31.485,19.033l3.829,15.89     l-91.599,123.162l15.19-98.026c2.412-15.561-1.766-47.12-0.451-47.78c-49.758-132.69-156.193-506.468-156.193-506.468V2361.547z"/>

				<linearGradient id="SVGID_00000180327064270996029710000010554589115759469982_" gradientUnits="userSpaceOnUse" x1="-5871.4077" y1="6342.6343" x2="-4633.2808" y2="-8127.979" gradientTransform="matrix(-1 0 0 1 -3446.3174 0)">
				<stop offset="0" style="stop-color:#FEBBBA"/>
				<stop offset="1" style="stop-color:#FF928E"/>
			</linearGradient>
			<path style="fill:url(#SVGID_00000180327064270996029710000010554589115759469982_);" d="M2083.51,3141.156     c1.436-0.025,2.848,0.09,4.292,0c-6.411-79.99-35.714-432.04-65.037-563.99c-33.172-149.274,49.758-447.824,49.758-447.824     l149.276,149.275l-82.931,281.963c56.832,85.247-9.271,584.476-7.847,584.26l-0.091,1.11l21.64,29.754l-2.632,16.131     l-132.191,78.006l52.014-84.466C2078.017,3171.966,2082.578,3156.765,2083.51,3141.156z"/>

				<linearGradient id="SVGID_00000029008546437823231400000005005702997858503574_" gradientUnits="userSpaceOnUse" x1="-5826.9023" y1="1715.0577" x2="-5668.1157" y2="1715.0577" gradientTransform="matrix(-1 0 0 1 -3446.3174 0)">
				<stop offset="0" style="stop-color:#FEBBBA"/>
				<stop offset="1" style="stop-color:#FF928E"/>
			</linearGradient>
			<path style="fill:url(#SVGID_00000029008546437823231400000005005702997858503574_);" d="M2251.412,1467.298     c0,0,290.639,327.566,0,495.52l-29.614-21.442c0,0,144.294-138.173,0-307.317L2251.412,1467.298z"/>

				<linearGradient id="SVGID_00000134928785223679225890000002469684624152931743_" gradientUnits="userSpaceOnUse" x1="-5317.0078" y1="3268.0322" x2="-4939.2827" y2="2688.5081" gradientTransform="matrix(-1 0 0 1 -3211.1565 0)">
				<stop offset="0" style="stop-color:#4F52FF"/>
				<stop offset="1" style="stop-color:#4042E2"/>
			</linearGradient>
			<path style="fill:url(#SVGID_00000134928785223679225890000002469684624152931743_);" d="M2009.04,3282.074h42.186     c7.896,0,15.343-3.625,20.158-9.883c13.151-17.088,40.398-50.427,53.426-51.296c17.54-1.173,15.296,61.179,15.296,61.179h9.831     l12.453-77.479c3.133-19.495-6.562-38.807-24.068-47.94l0,0c0,0-4.009,29.65-25.748,42.764     c-21.739,13.116-88.463,60.083-88.463,60.083s-8.173-1.166-17.146,0.456C1993.656,3262.364,1995.514,3282.074,2009.04,3282.074z"/>

				<linearGradient id="SVGID_00000106845231589763080660000016686244350660516744_" gradientUnits="userSpaceOnUse" x1="-5657.3438" y1="3444.5183" x2="-5238.2246" y2="2720.1133" gradientTransform="matrix(-1 0 0 1 -3211.1565 0)">
				<stop offset="0" style="stop-color:#4F52FF"/>
				<stop offset="1" style="stop-color:#4042E2"/>
			</linearGradient>
			<path style="fill:url(#SVGID_00000106845231589763080660000016686244350660516744_);" d="M2260.456,3277.267l38.884-16.359     c7.277-3.062,12.737-9.292,14.75-16.927c5.496-20.851,17.682-62.147,29.354-68.001c15.712-7.881,37.822,50.462,37.822,50.462     l9.062-3.813l-18.566-76.245c-4.671-19.184-21.097-33.225-40.773-34.856l0,0c0,0,7.801,28.884-7.151,49.403     c-14.952,20.518-58.244,89.685-58.244,89.685s-7.984,2.095-15.627,7.07C2238.631,3265.063,2247.988,3282.512,2260.456,3277.267z"/>

				<linearGradient id="SVGID_00000107572798461728457570000016194317354941215622_" gradientUnits="userSpaceOnUse" x1="2509.2095" y1="1681.2078" x2="2178.0366" y2="2129.6714">
				<stop offset="0" style="stop-color:#4F52FF"/>
				<stop offset="1" style="stop-color:#4042E2"/>
			</linearGradient>
			<path style="fill:url(#SVGID_00000107572798461728457570000016194317354941215622_);" d="M2034.507,1876.935     c0,0,4.879,29.898-2.268,112.087c-7.148,82.19-41.311,275.156-34.355,459.785c0,0,97.119,22.632,265.85,11.912     c0,0,71.209-288.26,53.86-397.846c-17.347-109.585-111.448-188.203-111.448-188.203L2034.507,1876.935z"/>

				<linearGradient id="SVGID_00000139290824714382917610000016439800968605399220_" gradientUnits="userSpaceOnUse" x1="-5653.4907" y1="1360.7712" x2="-5540.7163" y2="1360.7712" gradientTransform="matrix(-1 0 0 1 -3446.3174 0)">
				<stop offset="0" style="stop-color:#FEBBBA"/>
				<stop offset="1" style="stop-color:#FF928E"/>
			</linearGradient>
			<polygon style="fill:url(#SVGID_00000139290824714382917610000016439800968605399220_);" points="2106.27,1327.723      2094.399,1467.298 2207.173,1467.298 2179.132,1254.245    "/>

				<linearGradient id="SVGID_00000011009848948161660480000013267555299296578947_" gradientUnits="userSpaceOnUse" x1="3517.7056" y1="1202.8466" x2="3055.4431" y2="1354.634">
				<stop offset="0" style="stop-color:#FF928E"/>
				<stop offset="1" style="stop-color:#FE7062"/>
			</linearGradient>
			<path style="fill:url(#SVGID_00000011009848948161660480000013267555299296578947_);" d="M2240.581,1447.998     c-38.921-2.146-125.94-6.118-187.586-2.759c-32.458,1.768-59.647,25.055-66.287,56.876l-15.035,72.056     c-5.601,26.838-4.763,54.622,2.443,81.075l60.392,221.691c0,0,53.716,32.28,171.641-2.264c0,0,103.561-246.958,61.17-404.937     C2264.025,1457.466,2253.266,1448.698,2240.581,1447.998z"/>

				<linearGradient id="SVGID_00000093156529883673606850000004183570708935044001_" gradientUnits="userSpaceOnUse" x1="-4991.8267" y1="1425.0671" x2="-5967.187" y2="1983.8331" gradientTransform="matrix(-1 0 0 1 -3446.3174 0)">
				<stop offset="0" style="stop-color:#FEBBBA"/>
				<stop offset="1" style="stop-color:#FF928E"/>
			</linearGradient>
			<path style="fill:url(#SVGID_00000093156529883673606850000004183570708935044001_);" d="M1989.656,1489.189     c-16.612,43.758-31.615,89.642-47.733,132.615c-8.196,21.507-16.509,42.592-25.403,61.955     c-4.498,9.643-9.44,18.504-13.975,26.538c-4.54,7.954-9.653,14.57-12.316,17.615c-0.523,0.451,1.227,0.796,1.812,0.824     c0.353,0.044-11.23,1.899-14.783,2.495l-13.882-0.083c-19.898-1.023-42.436-4.531-65.041-8.924     c-45.596-8.501-93.002-20.438-141.678-29.468l-0.374-0.069c-9.314-1.728-18.265,4.422-19.993,13.737     c-1.14,6.142,1.17,12.143,5.531,16.003c19.627,17.277,40.432,31.47,62.011,45.284c10.862,6.642,21.914,13.152,33.149,19.403     c11.455,5.838,22.942,11.725,34.874,17.167c24.022,10.467,48.838,20.109,77.426,26.302c7.514,1.257,14.929,2.575,22.659,3.611     c8.67,0.301,16.544,1.069,26.012,0.521c5.03-0.498,10.083-1.115,15.122-1.848c2.686-0.473,4.662-0.524,7.917-1.422     c3.455-1.036,6.901-2.198,10.297-3.472c7.099-2.548,11.689-5.632,17.455-8.84c4.788-3.157,9.155-6.458,13.389-9.843     c15.629-13.313,25.334-26.525,33.888-39.21c8.529-12.675,15.29-25.372,21.359-37.818c12.175-24.857,21.681-49.487,29.395-74.289     c15.63-49.7,26.222-98.545,30.692-150.43c2.14-24.852-16.271-46.733-41.123-48.874c-20.568-1.773-39.103,10.535-46.094,28.919     L1989.656,1489.189z"/>

				<linearGradient id="SVGID_00000011718533979754764030000012119200317678387110_" gradientUnits="userSpaceOnUse" x1="-4894.9126" y1="1594.2363" x2="-5870.2725" y2="2153.0017" gradientTransform="matrix(-1 0 0 1 -3446.3174 0)">
				<stop offset="0" style="stop-color:#FEBBBA"/>
				<stop offset="1" style="stop-color:#FF928E"/>
			</linearGradient>
			<path style="fill:url(#SVGID_00000011718533979754764030000012119200317678387110_);" d="M1671.979,1715.058l-20.125-47.77     l-105.92-26.392c0,0-8.473,18.36,36.013,26.392c0,0-15.89,17.563-7.415,38.218     C1583.007,1726.16,1673.038,1746.852,1671.979,1715.058z"/>

				<linearGradient id="SVGID_00000061443610753727072710000004245450613800538242_" gradientUnits="userSpaceOnUse" x1="-5465.6577" y1="1360.7261" x2="-5684.8086" y2="1040.2701" gradientTransform="matrix(-1 0 0 1 -3446.3174 0)">
				<stop offset="0" style="stop-color:#FEBBBA"/>
				<stop offset="1" style="stop-color:#FF928E"/>
			</linearGradient>
			<path style="fill:url(#SVGID_00000061443610753727072710000004245450613800538242_);" d="M2058.52,1166.527     c-4.027,2.375-35.754,114.277-9.167,161.194c26.587,46.918,107.777-5.633,129.779-73.477     C2201.136,1186.401,2165.785,1103.268,2058.52,1166.527z"/>

				<linearGradient id="SVGID_00000164480251028209343660000011288879607198090631_" gradientUnits="userSpaceOnUse" x1="-5346.5723" y1="1131.7708" x2="-5657.0317" y2="1535.3678" gradientTransform="matrix(-1 0 0 1 -3211.1565 0)">
				<stop offset="0" style="stop-color:#09005D"/>
				<stop offset="1" style="stop-color:#1A0F91"/>
			</linearGradient>
			<path style="fill:url(#SVGID_00000164480251028209343660000011288879607198090631_);" d="M2268.949,1254.245     c18.21,89.224,78.55,64.806,121.287,104.501c69.266,64.337,168.352-1.985,264.683,58.983     c69.542,44.015,103.048,156.62,69.677,247.535c-46.223,125.92-204.182,177.704-286.04,139.352     c-78.234-36.654-67.094-146.433-172.356-188.859c-44.689-18.012-66.75-6.308-93.514-33.004     c-46.85-46.733-34.208-137.421-29.338-172.357c10.569-75.809,35.985-89.534,23.837-122.851     c-23.627-64.803-133.835-51.432-143.02-97.18c-8.363-41.66,71.516-120.625,146.688-108.181     C2287.159,1101.435,2260.835,1214.494,2268.949,1254.245z"/>
			<path style="opacity:0.6;fill:#FFFFFF;" d="M2689.861,1643.938c1.38,0,2.623-0.933,2.961-2.331     c14.89-61.819,8.135-112.518-20.09-150.692c-46.838-63.353-137.868-69.621-138.785-69.676c-1.432-0.237-3.116,1.173-3.223,2.856     c-0.101,1.677,1.172,3.122,2.854,3.222c0.887,0.054,89.164,6.18,134.284,67.255c27.083,36.651,33.488,85.643,19.036,145.607     c-0.392,1.634,0.613,3.282,2.249,3.675C2689.385,1643.909,2689.629,1643.938,2689.861,1643.938z"/>
			<path style="opacity:0.72;fill:#FFFFFF;" d="M2391.715,1700.53c0.125,0,0.256-0.018,0.386-0.048     c0.809-0.214,1.296-1.046,1.088-1.862c-14.504-55.652-39.958-94.301-75.641-114.883c-25.958-14.975-50.269-16.367-71.713-17.597     c-20.679-1.191-38.537-2.219-52.911-14.999c-29.711-26.422-27.992-89.948,5.115-188.816c0.268-0.797-0.166-1.659-0.963-1.927     c-0.803-0.268-1.66,0.166-1.928,0.964c-33.53,100.129-34.956,164.744-4.246,192.052c15.165,13.488,33.511,14.547,54.76,15.766     c21.106,1.213,45.031,2.587,70.365,17.198c34.951,20.154,59.922,58.18,74.212,113.017     C2390.417,1700.078,2391.036,1700.53,2391.715,1700.53z"/>
			<path style="opacity:0.72;fill:#FFFFFF;" d="M2225.864,1232.102c0.161,0,0.32-0.023,0.488-0.077     c0.797-0.267,1.225-1.136,0.957-1.933c-11.531-34.303-44.752-29.205-79.952-23.794c-22.278,3.426-45.309,6.952-64.845,1.172     c-14.577-4.323-23.235-11.019-25.74-19.911c-4.276-15.135,10.699-32.013,10.847-32.185c0.566-0.624,0.512-1.588-0.112-2.147     c-0.619-0.564-1.588-0.511-2.146,0.113c-0.667,0.738-16.243,18.276-11.525,35.041c2.806,9.961,12.162,17.365,27.807,22.004     c20.203,5.983,43.569,2.396,66.179-1.076c35.332-5.424,65.881-10.128,76.598,21.76     C2224.633,1231.704,2225.228,1232.102,2225.864,1232.102z"/>
		</g>
		<g>
			<g>

					<linearGradient id="SVGID_00000176008423294159331640000000821868812391407745_" gradientUnits="userSpaceOnUse" x1="3091.8804" y1="-28.4316" x2="2654.6394" y2="1585.9927">
					<stop offset="0" style="stop-color:#E1473D"/>
					<stop offset="1" style="stop-color:#E9605A"/>
				</linearGradient>
				<path style="fill:url(#SVGID_00000176008423294159331640000000821868812391407745_);" d="M2561.536,885.586      c0-157.029,133.016-284.31,292.641-284.289c154.906,0.019,277.16,120.597,277.16,269.319      c0,148.722-122.254,275.724-277.16,283.883C2694.552,1162.906,2561.536,1042.615,2561.536,885.586z"/>
			</g>
			<g>

					<linearGradient id="SVGID_00000053541077060323436100000000056967386742386598_" gradientUnits="userSpaceOnUse" x1="3018.2139" y1="366.897" x2="2749.1362" y2="1167.2302">
					<stop offset="0" style="stop-color:#FF928E"/>
					<stop offset="1" style="stop-color:#FE7062"/>
				</linearGradient>
				<path style="fill:url(#SVGID_00000053541077060323436100000000056967386742386598_);" d="M2588.236,884.885      c0-142.313,120.55-257.664,265.216-257.647c140.388,0.018,251.185,109.295,251.185,244.079      c0,134.784-110.797,249.884-251.185,257.278C2708.786,1136.215,2588.236,1027.197,2588.236,884.885z"/>
			</g>
			<g>
				<path style="fill:#FFFFFF;" d="M2767.527,868.747h-23.768v-94.718c0-37.202,27.849-68.641,64.78-73.13l48.597-5.906      c20.916-2.542,41.961,4.013,57.735,17.986c15.773,13.972,24.82,34.071,24.82,55.144v82.69h-23.768v-82.69      c0-14.273-6.127-27.888-16.812-37.352c-10.684-9.464-24.94-13.905-39.107-12.183l-48.597,5.906      c-25.015,3.04-43.879,24.335-43.879,49.535V868.747z"/>
				<path style="fill:#FFFFFF;" d="M2736.732,847.482l208.351-11.543c8.462-0.469,15.581,6.267,15.581,14.742v165.058      c0,8.154-6.61,14.764-14.764,14.764h-203.345c-7.967,0-14.497-6.321-14.757-14.283l-5.006-153.515      C2722.531,854.685,2728.721,847.925,2736.732,847.482z"/>

					<linearGradient id="SVGID_00000167370164170872015620000013824212026018136252_" gradientUnits="userSpaceOnUse" x1="2923.552" y1="154.1177" x2="2800.2205" y2="1350.9838">
					<stop offset="0" style="stop-color:#FF928E"/>
					<stop offset="1" style="stop-color:#FE7062"/>
				</linearGradient>
				<path style="fill:url(#SVGID_00000167370164170872015620000013824212026018136252_);" d="M2875.691,983.219l-12.611-36.255      c-1.516-4.359-0.483-9.232,2.758-12.517c6.463-6.548,10.313-15.679,9.857-25.707c-0.804-17.685-15.252-32.024-32.942-32.704      c-19.577-0.752-35.685,14.896-35.685,34.306c0,10.768,4.96,20.374,12.718,26.667c4.024,3.264,5.677,8.628,3.975,13.521      l-11.37,32.69c-2.765,7.95,3.137,16.253,11.555,16.253h40.189C2872.553,999.472,2878.456,991.169,2875.691,983.219z"/>
			</g>
		</g>
	</g>
</g>
</svg>